<svg xmlns="http://www.w3.org/2000/svg" viewBox="0 0 24 24">
  <path fill="#0077B5" d="M22.23 0H1.77C.79 0 0 .77 0 1.72v20.56C0 23.23.79 24 1.77 24h20.46c.98 0 1.77-.77 1.77-1.72V1.72C24 .77 23.21 0 22.23 0zM7.06 20.45H3.56V9h3.5v11.45zM5.31 7.43c-1.12 0-2.03-.91-2.03-2.03S4.19 3.37 5.31 3.37s2.03.91 2.03 2.03-.91 2.03-2.03 2.03zM20.45 20.45h-3.5v-5.6c0-1.33-.03-3.05-1.86-3.05-1.86 0-2.15 1.45-2.15 2.95v5.7h-3.5V9h3.36v1.56h.05c.47-.89 1.6-1.83 3.3-1.83 3.53 0 4.18 2.32 4.18 5.34v6.38z"/>
</svg>