<svg xmlns="http://www.w3.org/2000/svg" viewBox="0 0 32 32">
  <path fill="#25D366" d="M16 0C7.2 0 0 7.2 0 16c0 2.8.7 5.4 2 7.7L0 32l8.5-2.2c2.2 1.2 4.7 1.9 7.5 1.9 8.8 0 16-7.2 16-16S24.8 0 16 0z"/>
  <path fill="#fff" d="M24.1 19.2c-.4-.2-2.3-1.1-2.6-1.2-.4-.1-.6-.2-.9.2-.2.3-1 1.2-1.2 1.4-.2.2-.4.3-.8.1-.4-.2-1.7-.6-3.2-2-.9-.8-1.5-1.8-1.7-2.1-.2-.4 0-.6.2-.8.2-.2.4-.4.6-.6.2-.2.2-.4.3-.6.1-.2 0-.4 0-.6 0-.2-.9-2.2-1.2-3-.3-.7-.6-.6-.9-.6h-.7c-.2 0-.6.1-.9.4-.3.3-1.2 1.1-1.2 2.7 0 1.6 1.2 3.2 1.3 3.4.2.2 2.3 3.6 5.6 5 .8.3 1.4.5 1.9.7.8.2 1.5.2 2 .1.6-.1 2.3-.9 2.6-1.8.3-.9.3-1.7.2-1.8-.1-.2-.3-.2-.6-.4z"/>
</svg>